<?xml version="1.0" standalone="no"?><!DOCTYPE svg PUBLIC "-//W3C//DTD SVG 1.1//EN" "http://www.w3.org/Graphics/SVG/1.1/DTD/svg11.dtd"><svg t="1568101452670" class="icon" viewBox="0 0 1024 1024" version="1.1" xmlns="http://www.w3.org/2000/svg" p-id="3284" xmlns:xlink="http://www.w3.org/1999/xlink" width="200" height="200"><defs><style type="text/css"></style></defs><path d="M103.98378667 436.00964267c55.61215052-7.3194003 134.09515141-39.96967822 168.63990519-77.91744948 78.86286697-86.68228267 176.61102459-154.58364682 314.97815229-154.67952355 140.26403082 0 203.08878222 22.53710222 332.81972148 106.71566695 0.66385541 0.48181097 33.12116622 24.27137897 45.55237452-10.49789629 6.92739792-19.35860622-18.41076148-38.71842608-18.69596445-39.00726993-107.42806755-81.4818797-217.13411792-116.92471941-356.07043792-116.9247194-138.93510637 0-281.95164918 81.4818797-337.27981037 155.93198933-55.4228243 74.45010963-149.94394075 77.91744948-149.94394074 77.91744948 0 0-46.78663585 1.34834252-37.486592 39.00726992 5.78901333 23.40363378 37.486592 19.45569659 37.486592 19.4556966M907.70394075 476.65409897c-26.47775763-106.233856-151.17820208-186.65623703-301.12214282-186.65623705-138.17658785 0-259.84053097 76.85795082-295.61833245 172.11209957-38.0557843 9.72724148-77.91380859 18.10735408-119.38596029 24.46313243-6.0742163 0.96362192-11.95789275 1.54130963-18.03089541 2.4078412-99.64627437 0-180.40725808 84.46740859-180.40725808 185.59673837v54.89853629c0 30.33831348 24.29443792 54.8985363 54.18856297 54.8985363h18.03089541c0-80.80710163 64.53354192-146.39650133 144.24959052-146.39650133 79.71726222 0 144.34546725 65.5893997 144.34546726 146.39650133h342.68895762c0-80.80710163 64.53354192-146.39650133 144.24959052-146.39650133 78.57887763 0 142.44735052 63.75924622 144.15492741 143.12212859 21.06861037-7.51236741 36.25233067-27.64162845 36.25233067-51.62416356v-109.79707259c0-70.21211497-48.68475259-128.77095822-113.59694697-143.02625185M840.89362963 692.87799467c-49.82313718 0-90.1569043 41.02917689-90.1569043 91.49796503 0 50.56466489 40.33255348 91.59384178 90.1569043 91.59384179 49.82313718 0 90.25156741-41.02917689 90.2515674-91.59384179 0-50.46878815-40.42843022-91.49796503-90.2515674-91.49796503M209.60961423 692.87799467c-49.82313718 0-90.1569043 41.02917689-90.1569043 91.49796503 0 50.56466489 40.33255348 91.59384178 90.1569043 91.59384179 49.82313718 0 90.1569043-41.02917689 90.1569043-91.59384179 0-50.46878815-40.33255348-91.49796503-90.1569043-91.49796503z" fill="#ffffff" p-id="3285"></path></svg>