<?xml version="1.0" standalone="no"?><!DOCTYPE svg PUBLIC "-//W3C//DTD SVG 1.1//EN" "http://www.w3.org/Graphics/SVG/1.1/DTD/svg11.dtd"><svg t="1568101724232" class="icon" viewBox="0 0 1024 1024" version="1.1" xmlns="http://www.w3.org/2000/svg" p-id="4985" xmlns:xlink="http://www.w3.org/1999/xlink" width="200" height="200"><defs><style type="text/css"></style></defs><path d="M148.48 570.88l299.52 0c12.8 0 20.48-10.24 20.48-20.48 0-12.8-10.24-20.48-20.48-20.48L148.48 529.92C138.24 527.36 128 537.6 128 547.84 128 560.64 138.24 570.88 148.48 570.88zM148.48 442.88l299.52 0c12.8 0 20.48-10.24 20.48-20.48 0-12.8-10.24-20.48-20.48-20.48L148.48 401.92C138.24 399.36 128 409.6 128 419.84 128 432.64 138.24 442.88 148.48 442.88zM192 314.88l299.52 0c12.8 0 20.48-10.24 20.48-20.48 0-12.8-10.24-20.48-20.48-20.48L192 273.92c-12.8 0-20.48 10.24-20.48 20.48C171.52 304.64 179.2 314.88 192 314.88zM893.44 517.12l-168.96-238.08c-5.12-5.12-10.24-5.12-15.36-5.12l-89.6 0L619.52 186.88c0-12.8-10.24-20.48-20.48-20.48L256 166.4c-12.8 0-20.48 10.24-20.48 20.48S243.2 207.36 256 207.36l320 0 0 64 0 276.48c0 12.8 10.24 20.48 20.48 20.48l256 0 0 148.48-46.08 0c-10.24-48.64-53.76-84.48-104.96-84.48s-94.72 35.84-104.96 84.48l-174.08 0c-10.24-48.64-53.76-84.48-104.96-84.48s-94.72 35.84-104.96 84.48L148.48 716.8c-12.8 0-20.48 10.24-20.48 20.48 0 12.8 10.24 20.48 20.48 20.48l66.56 0c10.24 48.64 53.76 84.48 104.96 84.48s94.72-35.84 104.96-84.48l174.08 0c10.24 48.64 53.76 84.48 104.96 84.48s94.72-35.84 104.96-84.48l66.56 0c12.8 0 20.48-10.24 20.48-20.48l0-212.48C896 522.24 893.44 519.68 893.44 517.12zM320 803.84c-35.84 0-64-28.16-64-64 0-35.84 28.16-64 64-64s64 28.16 64 64C384 775.68 355.84 803.84 320 803.84zM704 803.84c-35.84 0-64-28.16-64-64 0-35.84 28.16-64 64-64s64 28.16 64 64C768 775.68 739.84 803.84 704 803.84zM698.88 314.88l151.04 212.48-230.4 0 0-212.48L698.88 314.88z" p-id="4986" fill="#ffffff"></path></svg>