<?xml version="1.0" standalone="no"?><!DOCTYPE svg PUBLIC "-//W3C//DTD SVG 1.1//EN" "http://www.w3.org/Graphics/SVG/1.1/DTD/svg11.dtd"><svg t="1568101282347" class="icon" viewBox="0 0 1024 1024" version="1.1" xmlns="http://www.w3.org/2000/svg" p-id="2842" xmlns:xlink="http://www.w3.org/1999/xlink" width="200" height="200"><defs><style type="text/css"></style></defs><path d="M732.5 215.85c-12-12-33-9-42-0.05l-37.55 37.55-124.43 124.41q-0.54 0.51-1.05 1.05L512 394.29l-15.47-15.47q-0.51-0.54-1.05-1.05L371.06 253.35l-37.55-37.55c-9-9-30-12-42 0.05s-12 30 0 42l37.55 37.55 124.41 124.37 28.83 28.83v23.72H371c-17 0-29.74 12.72-29.74 29.67A29 29 0 0 0 371 531.73h111.3v75H371c-17 0-29.74 12.72-29.74 29.67A29 29 0 0 0 371 666.14h111.3v157.49a29 29 0 0 0 29.7 29.74c12.72 0 25.45-12.72 29.66-29.74V666.14h111.46a29 29 0 0 0 29.66-29.74c0-16.95-12.72-29.67-29.66-29.67H541.71v-75h111.42c12.72 0 29.66-12.72 29.66-29.74s-12.72-29.67-29.66-29.67H541.71v-23.73l28.82-28.82 124.42-124.41 37.55-37.56c11.98-11.98 11.98-29.97 0-41.95zM67.11 305.1V153.22a86.21 86.21 0 0 1 86.12-86.12H305.1V3.73H153.22C70.79 3.73 3.73 70.79 3.73 153.22V305.1zM718.9 67.11h151.88a86.21 86.21 0 0 1 86.12 86.12V305.1h63.38V153.22c0-82.43-67.06-149.5-149.5-149.5H718.9zM305.1 956.89H153.22a86.21 86.21 0 0 1-86.12-86.12V718.9H3.73v151.88c0 82.43 67.06 149.5 149.49 149.5H305.1zM956.89 718.9v151.88a86.21 86.21 0 0 1-86.12 86.12H718.9v63.38h151.88c82.43 0 149.5-67.06 149.5-149.5V718.9z" fill="#ffffff" p-id="2843"></path></svg>